<svg width="32" height="32" viewBox="0 0 200 200" fill="none" xmlns="http://www.w3.org/2000/svg">
<g clip-path="url(#c)">
<path opacity="0.4" d="M120.073 150.5C121.433 152.569 122.827 154.561 124.248 156.479C117.657 159.302 110.474 161.008 102.936 161.358C102.371 159.028 101.868 156.667 101.425 154.293C107.996 154.127 114.278 152.796 120.073 150.5ZM69.31 144.824C74.534 148.4 80.412 151.088 86.728 152.674C86.616 155.145 86.576 157.575 86.603 159.959C79.291 158.333 72.468 155.407 66.391 151.436C67.299 149.216 68.276 147.008 69.31 144.824ZM145.844 129.29C148.163 130.166 150.465 130.959 152.744 131.676C148.938 137.969 144.037 143.526 138.305 148.082C136.478 146.526 134.684 144.908 132.93 143.245C138.006 139.389 142.385 134.664 145.844 129.29ZM48.742 118.195C50.936 124.333 54.201 129.962 58.312 134.856C56.773 136.793 55.315 138.737 53.94 140.685C49.07 135.192 45.169 128.822 42.5 121.842C44.537 120.575 46.623 119.36 48.742 118.195ZM161.387 94.822C161.522 96.485 161.592 98.165 161.592 99.862C161.592 105.677 160.785 111.303 159.279 116.636C156.882 116.452 154.477 116.197 152.077 115.884C153.635 110.818 154.474 105.438 154.474 99.862C154.474 98.888 154.447 97.919 154.397 96.957C156.79 96.299 159.12 95.586 161.387 94.822ZM40.607 83.687C43.001 83.854 45.405 84.093 47.806 84.393C46.356 89.296 45.577 94.489 45.577 99.862C45.577 101.117 45.621 102.361 45.704 103.595C43.32 104.263 40.997 104.985 38.74 105.758C38.555 103.817 38.46 101.851 38.46 99.862C38.46 94.265 39.207 88.841 40.607 83.687ZM146.733 59.753C151.51 65.311 155.312 71.73 157.874 78.747C155.829 80.011 153.734 81.223 151.609 82.384C149.52 76.219 146.357 70.549 142.343 65.598C143.888 63.655 145.352 61.706 146.733 59.753ZM61.685 51.69C63.525 53.233 65.331 54.841 67.099 56.495C61.928 60.428 57.481 65.263 53.994 70.768C51.669 69.908 49.362 69.129 47.078 68.43C50.903 62.002 55.864 56.33 61.685 51.69ZM114.104 39.914C121.462 41.635 128.312 44.676 134.392 48.773C133.485 51.001 132.506 53.216 131.472 55.408C126.254 51.71 120.356 48.908 114.003 47.226C114.106 44.745 114.14 42.306 114.104 39.914ZM97.609 38.343C98.189 40.676 98.704 43.041 99.159 45.421C92.461 45.525 86.057 46.839 80.155 49.153C78.777 47.089 77.368 45.101 75.93 43.19C82.63 40.338 89.94 38.639 97.609 38.343Z" fill="black"/>
<path d="M59.704 183.546C69.546 188.292 80.354 191.353 91.752 192.356C92.617 194.929 93.58 197.377 94.627 199.692C83.02 199.078 71.939 196.484 61.713 192.242C60.705 189.91 59.954 187.109 59.704 183.546ZM147.428 179.712C149.638 181.29 151.855 182.711 154.062 183.975C144.642 190.04 134.138 194.567 122.904 197.199C120.751 195.881 118.533 194.033 116.275 191.297C127.482 189.316 137.994 185.326 147.428 179.712ZM18.287 144.033C23.636 153.901 30.72 162.692 39.13 169.995C38.327 172.591 37.674 175.143 37.171 177.637C28.401 170.545 20.854 162.002 14.897 152.371C15.41 149.86 16.407 147.113 18.287 144.033ZM193.103 136.4C188.897 147.1 182.901 156.898 175.483 165.428C172.969 165.612 170.093 165.405 166.666 164.508C174.4 156.537 180.717 147.185 185.211 136.855C187.934 136.832 190.568 136.678 193.103 136.4ZM7.926 87.534C7.393 91.559 7.117 95.665 7.117 99.836C7.117 107.075 7.946 114.122 9.513 120.885C7.338 122.526 5.313 124.22 3.445 125.955C1.199 117.629 0 108.872 0 99.836C0 97.346 0.093 94.876 0.271 92.432C2.153 90.653 4.569 88.966 7.926 87.534ZM196.843 74.814C198.903 82.811 200 91.195 200 99.836C200 102.822 199.868 105.778 199.611 108.698C197.688 110.347 195.24 111.894 191.926 113.202C192.555 108.838 192.883 104.375 192.883 99.836C192.883 92.975 192.137 86.288 190.726 79.851C192.916 78.221 194.957 76.538 196.843 74.814ZM23.773 35.108C26.356 34.753 29.322 34.789 32.913 35.6C25.191 43.662 18.909 53.113 14.478 63.541C11.747 63.598 9.108 63.789 6.573 64.104C10.654 53.441 16.507 43.656 23.773 35.108ZM163.562 22.634C172.335 29.865 179.853 38.562 185.743 48.351C185.194 50.849 184.154 53.579 182.245 56.638C176.99 46.654 169.972 37.743 161.603 30.32C162.408 27.708 163.061 25.142 163.562 22.634ZM76.724 2.561C79.019 3.8 81.393 5.584 83.817 8.359C72.512 10.346 61.912 14.376 52.41 20.056C50.166 18.496 47.918 17.099 45.681 15.863C55.063 9.782 65.528 5.23 76.724 2.561ZM105.771 0.002C117.415 0.664 128.527 3.318 138.77 7.63C139.855 9.981 140.682 12.816 140.979 16.461C131.093 11.593 120.217 8.431 108.733 7.36C107.84 4.777 106.849 2.321 105.771 0.002Z" fill="black"/>
<path opacity="0.8" d="M60.964 168.945C69.244 173.632 78.45 176.873 88.24 178.328C88.681 180.872 89.205 183.337 89.805 185.717C79.092 184.459 68.979 181.243 59.831 176.436C60.04 174.18 60.408 171.694 60.964 168.945ZM136.349 170.399C138.2 172.203 140.071 173.893 141.955 175.47C132.922 180.492 122.895 183.942 112.244 185.452C111.096 183.496 109.941 181.265 108.783 178.713C118.626 177.63 127.927 174.746 136.349 170.399ZM27.83 132.885C31.911 141.782 37.588 149.794 44.495 156.554C43.362 158.876 42.343 161.182 41.437 163.463C33.701 156.339 27.266 147.824 22.533 138.312C24.018 136.601 25.767 134.795 27.83 132.885ZM170.743 135.834C173.305 136.207 175.818 136.474 178.273 136.643C173.754 146.236 167.524 154.863 159.976 162.131C157.899 161.219 155.654 160.09 153.22 158.704C160.364 152.241 166.326 144.498 170.743 135.834ZM22.213 84.042C21.182 89.146 20.64 94.428 20.64 99.836C20.64 104.359 21.02 108.792 21.747 113.108C19.465 114.33 17.286 115.605 15.214 116.928C14.106 111.403 13.523 105.688 13.523 99.836C13.523 94.899 13.937 90.058 14.732 85.347C16.938 84.825 19.416 84.383 22.213 84.042ZM184.987 83.777C185.964 88.981 186.477 94.349 186.477 99.836C186.477 105.092 186.007 110.237 185.109 115.234C182.89 115.722 180.407 116.132 177.617 116.445C178.758 111.089 179.36 105.533 179.36 99.836C179.36 95.664 179.036 91.566 178.416 87.567C180.71 86.356 182.901 85.09 184.987 83.777ZM159.289 36.884C166.964 44.115 173.318 52.734 177.947 62.339C176.446 64.047 174.68 65.847 172.605 67.752C168.634 58.779 163.05 50.681 156.219 43.825C157.357 41.492 158.38 39.176 159.289 36.884ZM39.731 37.821C41.827 38.692 44.096 39.792 46.566 41.161C39.361 47.726 33.37 55.6 28.969 64.408C26.4 64.06 23.883 63.815 21.426 63.673C25.91 53.946 32.146 45.194 39.731 37.821ZM110.743 14.021C121.542 15.359 131.722 18.688 140.908 23.629C140.711 25.896 140.352 28.395 139.802 31.166C131.493 26.34 122.229 22.978 112.362 21.435C111.904 18.881 111.363 16.407 110.743 14.021ZM88.02 14.183C89.202 16.126 90.392 18.354 91.585 20.919C81.599 21.971 72.166 24.875 63.635 29.281C61.76 27.488 59.864 25.81 57.958 24.25C67.088 19.16 77.236 15.678 88.02 14.183Z" fill="black"/>
<path opacity="0.6" d="M127.371 160.513C128.951 162.469 130.56 164.336 132.191 166.112C124.317 169.944 115.658 172.414 106.52 173.216C105.68 170.953 104.918 168.626 104.232 166.251C112.437 165.736 120.239 163.735 127.371 160.513ZM64.569 156.177C71.258 160.392 78.75 163.449 86.764 165.066C86.897 167.577 87.106 170.031 87.386 172.425C78.372 170.869 69.919 167.676 62.344 163.162C62.987 160.836 63.734 158.504 64.569 156.177ZM157.645 133.107C160.078 133.763 162.482 134.33 164.85 134.809C160.579 142.712 154.905 149.747 148.162 155.578C146.153 154.238 144.169 152.799 142.219 151.278C148.386 146.211 153.626 140.056 157.645 133.107ZM38.227 124.635C41.261 132.186 45.639 139.052 51.066 144.937C49.703 147.049 48.436 149.162 47.26 151.267C41.016 144.864 35.929 137.329 32.334 128.998C34.215 127.487 36.187 126.033 38.227 124.635ZM173.042 90.213C173.452 93.363 173.666 96.575 173.666 99.837C173.665 105.709 172.976 111.421 171.677 116.896C169.261 116.996 166.808 116.999 164.333 116.917C165.777 111.466 166.548 105.742 166.548 99.837C166.548 97.559 166.433 95.306 166.209 93.087C168.565 92.183 170.843 91.222 173.042 90.213ZM28.148 83.525C30.56 83.402 33.013 83.379 35.488 83.441C34.159 88.686 33.452 94.179 33.452 99.837C33.452 102.44 33.601 105.007 33.892 107.532C31.547 108.447 29.279 109.417 27.092 110.436C26.594 106.975 26.335 103.436 26.335 99.837C26.335 94.232 26.962 88.772 28.148 83.525ZM153.441 49.136C159.6 55.625 164.589 63.235 168.071 71.629C166.177 73.136 164.195 74.588 162.144 75.982C159.224 68.381 154.951 61.452 149.618 55.489C150.987 53.369 152.261 51.248 153.441 49.136ZM51.68 44.231C53.707 45.549 55.708 46.972 57.677 48.478C51.421 53.639 46.125 59.922 42.094 67.019C39.655 66.383 37.247 65.837 34.875 65.379C39.143 57.328 44.861 50.163 51.68 44.231ZM113.253 27.36C122.337 29.011 130.839 32.327 138.433 36.981C137.795 39.317 137.05 41.66 136.216 43.998C129.518 39.644 121.987 36.463 113.915 34.746C113.769 32.225 113.547 29.762 113.253 27.36ZM93.912 26.42C94.775 28.682 95.555 31.013 96.261 33.393C87.913 33.855 79.975 35.855 72.726 39.116C71.125 37.167 69.496 35.308 67.845 33.542C75.834 29.66 84.629 27.179 93.912 26.42Z" fill="black"/>
</g>
<defs>
<clipPath id="c">
<rect width="200" height="200" fill="white"/>
</clipPath>
</defs>
</svg>
